<svg xmlns="http://www.w3.org/2000/svg" width="16" height="16" fill="currentColor" viewBox="0 0 16 16">
  <path fill="#A0A4A8" d="M15.646 6.8c-.566-.446-1.623-.066-2.448.85-.77-.215-1.452-.162-2.035.166-1.115.629-1.537 2.075-1.694 3.174l-.07.516c-.25 1.902-.487 3.7-2.743 3.7l-.112-.001c-.64-.016-1.1-.215-1.408-.608-.566-.727-.469-1.914-.397-2.407a.66.66 0 00.39-.582l.034-.974 1.195-.356a.658.658 0 00.348-.256c.214.048.481.037.67-.081.331-.207.814-.603 1.416-1.354.658-.82.82-1.481.835-1.91.008-.306-.205-.616-.363-.703-.158-.086-.187.076-.157.38.045.457-.027 1.153-.617 1.91-.012.013-.021.022-.03.035l.004-.033c.14-.218.262-.447.355-.692.96-2.542-1.115-5.508-1.205-5.633-.019-.027-.044-.045-.07-.066.06-.136.045-.259-.054-.323-.156-.1-.399-.403-.54-.675L6.7.4C6.563.13 6.268.082 6.047.293l-.619.601c-.222.212-.179.498.091.64l.437.224c.27.143.567.399.663.573.072.13.238.149.41.061.175.256 1.884 2.85 1.1 4.925-.032.085-.082.163-.123.245L8 7.563c-.048-.011-.094-.029-.144-.029a.625.625 0 00-.334.098l.145.14a.608.608 0 00-.147.386c0 .037.008.072.014.108-.275.3-.619.57-1.035.798a.665.665 0 00-.52-.06l-1.456.433-1.558-.493a.66.66 0 00-.515.051c-.743-.44-1.248-1.001-1.506-1.678-.82-2.175 1.098-4.92 1.117-4.947.001-.005.001-.01.006-.015 0 0 .045.043.101.093.056.053.178-.046.274-.22.094-.177.393-.433.664-.574l.435-.225c.272-.141.313-.427.093-.64l-.621-.6c-.22-.213-.512-.165-.655.107L2.11.773c-.142.272-.384.573-.539.675-.158.1-.227.235-.158.3l.126.118a.329.329 0 00-.081.075c-.09.125-2.165 3.091-1.205 5.633.323.852.944 1.544 1.853 2.072a.66.66 0 00.457.565l1.272.402-.033.949a.68.68 0 00.208.504c-.088.587-.205 2.024.542 2.982.446.573 1.11.874 1.974.894.047.004.092.004.136.004 2.898 0 3.215-2.405 3.47-4.343.022-.17.044-.339.068-.507.189-1.323.66-2.26 1.327-2.635.334-.19.736-.243 1.193-.163-.574.948-.646 1.939-.123 2.355.606.48 1.78.006 2.622-1.058.842-1.064 1.032-2.315.428-2.795zM8.354 8.426c-.05.059-.1.123-.148.177.048-.06.096-.121.141-.184l.007.007zm5.784.29c-.316.4-.755.577-.983.396-.166-.131-.17-.418-.04-.718.12.038.242.08.367.132a.37.37 0 10.288-.68c-.056-.024-.11-.041-.165-.06.258-.19.528-.247.69-.117.228.18.156.65-.157 1.046z"/>
</svg>
