<svg xmlns="http://www.w3.org/2000/svg" width="14" height="16" fill="currentColor" viewBox="0 0 14 16">
  <path fill="#A0A4A8" d="M4.211 4.462c.107.22.223.412.267.64a3.47 3.47 0 00.84 1.679c.272.299.256.606.164.915-.08.267-.056.462.121.667.237.275.474.549.802.723.38.204.91.168 1.34-.166.35-.274.612-.624.855-.992.043-.064.026-.12.013-.18-.016-.076-.03-.151-.047-.225-.065-.302.024-.542.23-.779a3.592 3.592 0 00.817-1.648c.046-.224.165-.41.29-.608-.004.077 0 .155-.012.232-.118.79-.029 1.571.112 2.346.06.318.163.632.291.934.076.176.255.173.393.229.497.198.98.422 1.438.704.414.254.624.641.771 1.078.23.682.432 1.371.57 2.08.15.778.21 1.559.165 2.349-.021.346-.239.552-.529.66-.686.258-1.393.458-2.113.606-.424.086-.85.152-1.272.233-.32.063-.634.055-.952.056-.839.007-1.679-.011-2.517.007a11.666 11.666 0 01-2.392-.218 18.23 18.23 0 01-2.411-.595 8.796 8.796 0 01-.658-.248c-.334-.141-.387-.442-.41-.743-.038-.468.047-.932.097-1.395.067-.622.174-1.24.328-1.848.144-.571.318-1.134.632-1.635.25-.402.657-.622 1.094-.782.363-.132.728-.258 1.091-.39a.29.29 0 00.181-.18 6.29 6.29 0 00.397-1.731c.048-.519.07-1.032-.007-1.549-.008-.066-.022-.136.021-.226zm2.35 9.252c0 .147.007.268 0 .39-.009.122.03.174.16.168.191-.008.383-.008.575 0 .131.006.165-.051.162-.17-.007-.23.004-.46-.005-.69-.005-.138.035-.198.184-.191.23.01.46-.003.691.005.126.004.173-.047.171-.168-.003-.192-.008-.384.002-.575.008-.136-.058-.161-.173-.16-.218.005-.435.002-.653.005-.158.003-.233-.058-.224-.229.013-.222.002-.448.007-.672.001-.105-.034-.149-.146-.145-.198.006-.397.004-.595 0-.112-.002-.162.035-.159.155.007.23-.006.46.005.691.007.147-.06.194-.192.194-.166 0-.333.001-.499.003-.357.005-.357.006-.355.37.001.529.001.526.528.53.165.002.374-.071.48.036.109.104.02.315.037.453zM4.886 3.736c-.218 0-.435-.005-.653.002-.146.004-.205-.05-.21-.2-.012-.372-.038-.746.013-1.112.123-.872.584-1.848 1.733-2.199C6.285.07 6.805-.05 7.338.02 8.339.147 9.22.52 9.71 1.475c.316.613.314 1.293.287 1.967-.002.06.008.123-.107.1-.09-.017-.104.1-.119.167-.022.105-.053.121-.153.069-.437-.23-.724-.586-.9-1.036-.048-.123-.068-.145-.192-.059-.798.557-1.686.869-2.65.997-.33.045-.66.06-.991.056z"/>
</svg>
