<svg xmlns="http://www.w3.org/2000/svg" width="14" height="14" fill="currentColor" viewBox="0 0 14 14">
  <path fill="#A0A4A8" d="M7.003 0a7 7 0 10-.005 14.001A7 7 0 007.003 0zm.802 11.858a6.032 6.032 0 01-.994.086c-.334 0-.675-.029-1.01-.086a6.549 6.549 0 01-.08-.994c0-.33.03-.664.08-1.01.335-.05.671-.08.994-.08.33 0 .664.03 1.01.08.057.348.081.682.081.999 0 .336-.024.67-.081 1.005zm1.813-5.912a2.834 2.834 0 01-.596.785c-.23.215-.467.387-.715.514-.243.133-.445.23-.595.294v1.242a5.78 5.78 0 01-.918.08c-.295 0-.583-.029-.855-.08V6.437c.208-.035.427-.087.653-.155.226-.07.438-.162.629-.284.19-.115.347-.265.467-.438.122-.18.184-.398.184-.664 0-.387-.144-.686-.42-.89-.284-.208-.658-.305-1.12-.305-.191 0-.36.006-.51.017-.15.012-.288.036-.416.07a7.34 7.34 0 00-.808.254 4.469 4.469 0 01-.312-.74 3.368 3.368 0 01-.15-.79c.237-.08.456-.15.658-.208.196-.064.392-.11.582-.144.19-.035.38-.064.571-.075.19-.011.399-.023.611-.023 1.092 0 1.917.248 2.47.744.554.496.833 1.172.833 2.039a2.29 2.29 0 01-.243 1.1z"/>
</svg>
