<svg xmlns="http://www.w3.org/2000/svg" width="14" height="16" fill="currentColor" viewBox="0 0 14 16">
  <path fill="#A0A4A8" d="M6.33 1.334a1.335 1.335 0 11-2.67 0 1.335 1.335 0 012.67 0zm4.064 10.922a.515.515 0 00-.688.243 4.36 4.36 0 01-3.914 2.466 4.339 4.339 0 01-4.334-4.335c0-1.356.617-2.61 1.696-3.44a.516.516 0 10-.63-.819 5.336 5.336 0 00-2.1 4.261A5.375 5.375 0 005.792 16c2.054 0 3.957-1.2 4.845-3.054a.518.518 0 00-.243-.69zm3.108.398l-2.78-4.46c-.133-.215-.396-.264-.677-.253H6.544c-.142 0-.258-.016-.258-.034l.004-.032v-.568c0-.142.022-.253.05-.251a.52.52 0 00.054.003h3.054a.624.624 0 100-1.248H6.394a.282.282 0 00-.053.005c-.029.002-.051-.109-.051-.251v-1.46c0-.555-.452-1.004-1.005-1.004h-.279c-.553 0-1.003.45-1.003 1.005v5.048c0 .553.45 1.004 1.003 1.004h4.808c.143 0 .32.096.4.215l2.03 3.067c.186.3.622.368.969.15.347-.216.477-.635.29-.936z"/>
</svg>
